<svg xmlns="http://www.w3.org/2000/svg" viewBox="0 0 512 512"><style>.st0{fill:none}</style><path d="M256 163.7c-52.7 0-95.6 42.9-95.6 95.6 0 52.7 42.9 95.6 95.6 95.6 52.7 0 95.6-42.9 95.6-95.6 0-52.7-42.9-95.6-95.6-95.6zm0 147.2c-28.5 0-51.6-23.1-51.6-51.6s23.1-51.6 51.6-51.6 51.6 23.1 51.6 51.6-23.1 51.6-51.6 51.6zm234.1-70c-11.9-5.2-26-10.8-41.4-16.4-1.1-5.9-2.4-11.7-4-17.5 11.4-11.7 21.6-22.9 30.1-32.7 11.4-13.3 11.8-32.9.9-46.6L433 74.2c-10.9-13.7-30.1-17.7-45.5-9.5-11.5 6.1-24.6 13.6-38.6 22.1-5.3-2.8-10.6-5.4-16.1-7.8-2.1-16.1-4.4-31.1-6.8-43.9-3.2-17.1-18.3-29.6-35.8-29.6h-68.4c-17.5 0-32.6 12.5-35.8 29.7-2.4 12.8-4.7 27.8-6.8 44-5.5 2.3-10.9 4.9-16.1 7.8-13.9-8.5-27.1-16-38.6-22.1-15.5-8.2-34.7-4.2-45.6 9.5l-42.7 53.5c-10.9 13.7-10.6 33.3.8 46.5 8.5 9.8 18.7 21 30.1 32.7-1.6 5.8-2.9 11.6-4 17.4-15.3 5.6-29.4 11.2-41.3 16.4-16.1 7-24.9 24.5-21 41.6L16 349.2c3.9 17.1 19.4 29 36.9 28.3 13-.5 28.2-1.6 44.4-3.2 3.5 4.8 7.2 9.5 11.1 14-5.2 15.4-9.6 30-12.9 42.6-4.5 16.9 3.6 34.7 19.4 42.3l61.6 29.7c5.1 2.4 10.5 3.6 15.8 3.6 11.3 0 22.3-5.2 29.4-14.8 7.7-10.5 16.3-23 25.2-36.7 6 .3 11.9.3 17.8 0 8.9 13.7 17.5 26.2 25.2 36.7 10.4 14.1 29.4 18.8 45.2 11.2l61.6-29.7c15.8-7.6 23.9-25.4 19.4-42.3-3.4-12.6-7.8-27.1-13-42.6 3.9-4.5 7.6-9.1 11.1-14 16.2 1.6 31.3 2.7 44.4 3.2 17.5.7 33-11.3 36.9-28.3l15.2-66.7c4.3-17.1-4.5-34.6-20.6-41.6zm-35.7 92.4c-24.2-1.2-45.9-3.8-62-5.6-16.5 26.4-17.4 27.5-39.4 49.3 5.3 15.2 12.7 35.9 19.2 59.2l-50.4 24.2c-14.1-19.7-25.7-38.3-34.3-52-30.7 3.6-32.4 3.6-63.1 0-8.5 13.5-20.2 32.3-34.3 52l-50.4-24.2c6.5-23.3 13.9-43.8 19.2-59.2-22.1-21.8-23-23-39.4-49.3-16 1.8-37.8 4.4-62 5.6l-12.4-54.5c22.3-9.4 42.9-16.5 58.3-21.9 3.3-31 3.6-32.4 14-61.6-11.4-11.4-27.1-26.9-43-45l34.8-43.7c21.2 11.5 39.7 23.3 53.5 31.9 26.3-16.7 27.6-17.3 56.9-27.4 1.8-16.1 4.2-37.9 8.4-61.7h55.9c4.2 23.8 6.5 45.4 8.4 61.7 29.2 10.1 30.5 10.6 56.9 27.4 13.8-8.6 32.3-20.4 53.5-31.9l34.8 43.7c-16 18.1-31.6 33.5-43 45 10.4 29.2 10.7 30.6 14 61.6 15.4 5.4 36.1 12.5 58.3 21.9l-12.4 54.5z"/></svg>
