<svg xmlns="http://www.w3.org/2000/svg" viewBox="0 0 448 512"><style>.st0{fill:none}</style><path d="M407.3 473.9l19.8-19.8c4.7-4.7 4.7-12.3 0-17L246.4 256 427.1 74.9c4.7-4.7 4.7-12.3 0-17l-19.8-19.8c-4.7-4.7-12.3-4.7-17 0L180.9 247.5c-4.7 4.7-4.7 12.3 0 17l209.4 209.4c4.7 4.7 12.3 4.7 17 0z"/><path d="M247.3 473.9l19.8-19.8c4.7-4.7 4.7-12.3 0-17L86.4 256 267.1 74.9c4.7-4.7 4.7-12.3 0-17l-19.8-19.8c-4.7-4.7-12.3-4.7-17 0L20.9 247.5c-4.7 4.7-4.7 12.3 0 17l209.4 209.4c4.7 4.7 12.3 4.7 17 0z"/></svg>
