<svg xmlns="http://www.w3.org/2000/svg" viewBox="0 0 448 512"><path d="M192 188v216c0 6.6-5.4 12-12 12h-24c-6.6 0-12-5.4-12-12V188c0-6.6 5.4-12 12-12h24c6.6 0 12 5.4 12 12zm100-12h-24c-6.6 0-12 5.4-12 12v216c0 6.6 5.4 12 12 12h24c6.6 0 12-5.4 12-12V188c0-6.6-5.4-12-12-12zm132-96c13.3 0 24 10.7 24 24v12c0 6.6-5.4 12-12 12h-20v336c0 26.5-21.5 48-48 48H80c-26.5 0-48-21.5-48-48V128H12c-6.6 0-12-5.4-12-12v-12c0-13.3 10.7-24 24-24h74.4l34-56.7C141.1 8.8 156.7 0 173.6 0h100.8c16.9 0 32.5 8.8 41.2 23.3l34 56.7H424zm-269.6 0h139.2l-19.2-32H173.6l-19.2 32zM368 128H80v336h288V128z"/></svg>
