<svg xmlns="http://www.w3.org/2000/svg" viewBox="0 0 512 512"><style>.st0{fill:none}</style><path d="M488.918 316.574l-44.129-25.478C446.891 279.716 448 267.988 448 256s-1.109-23.716-3.211-35.096l44.129-25.478c11.479-6.627 15.412-21.306 8.785-32.785l-40-69.282c-6.627-11.479-21.306-15.412-32.785-8.785l-44.157 25.494C363.015 94.883 342.468 82.883 320 74.94V24c0-13.255-10.745-24-24-24h-80c-13.255 0-24 10.745-24 24v50.94c-22.468 7.942-43.015 19.942-60.761 35.128L87.082 84.574c-11.479-6.627-26.157-2.694-32.785 8.785l-40 69.282c-6.627 11.479-2.694 26.157 8.785 32.785l44.129 25.478C65.109 232.284 64 244.012 64 256s1.109 23.716 3.211 35.096l-44.129 25.478c-11.479 6.627-15.412 21.306-8.785 32.785l40 69.282c6.627 11.479 21.306 15.412 32.785 8.785l44.157-25.494c17.746 15.186 38.293 27.186 60.761 35.128V488c0 13.255 10.745 24 24 24h80c13.255 0 24-10.745 24-24v-50.94c22.468-7.942 43.015-19.942 60.761-35.128l44.157 25.494c11.479 6.627 26.157 2.694 32.785-8.785l40-69.282c6.627-11.479 2.694-26.157-8.785-32.785zM256 336c-44.112 0-80-35.888-80-80s35.888-80 80-80 80 35.888 80 80-35.888 80-80 80z"/></svg>
