<svg xmlns="http://www.w3.org/2000/svg" viewBox="0 0 496 496"><path d="M496 248C496 111 385 0 248 0S0 111 0 248s111 248 248 248 248-111 248-248zM248 464c-118.7 0-216-96.1-216-216 0-118.7 96.1-216 216-216 118.7 0 216 96.1 216 216 0 118.7-96.1 216-216 216zm-12.5-92.5l-115.1-115c-4.7-4.7-4.7-12.3 0-17l115.1-115c4.7-4.7 12.3-4.7 17 0l6.9 6.9c4.7 4.7 4.7 12.5-.2 17.1L173.7 231H364c6.6 0 12 5.4 12 12v10c0 6.6-5.4 12-12 12H173.7l85.6 82.5c4.8 4.7 4.9 12.4.2 17.1l-6.9 6.9c-4.8 4.7-12.4 4.7-17.1 0z"/></svg>
