<svg xmlns="http://www.w3.org/2000/svg" viewBox="0 0 448 512"><style>.st0{fill-rule:evenodd;clip-rule:evenodd;fill:none}</style><path d="M400 64c8.8 0 16 7.2 16 16v352c0 8.8-7.2 16-16 16H48c-8.8 0-16-7.2-16-16V80c0-8.8 7.2-16 16-16h352m0-32H48C21.5 32 0 53.5 0 80v352c0 26.5 21.5 48 48 48h352c26.5 0 48-21.5 48-48V80c0-26.5-21.5-48-48-48z"/><path d="M198.8 375.6l-102-66.8c-5.5-3.6-7.1-11.1-3.5-16.6l6.6-10c3.6-5.5 11.1-7.1 16.6-3.5l81.9 53.7 126.2-192.6c3.6-5.5 11.1-7.1 16.6-3.5l10 6.6c5.5 3.6 7.1 11.1 3.5 16.6L215.4 372.2c-3.7 5.5-11.1 7.1-16.6 3.4z"/></svg>
