<svg xmlns="http://www.w3.org/2000/svg" viewBox="0 0 576 512"><style>.st0{fill:none}</style><path d="M260.3 441.7l5.3-116c.1-3.2 2.8-5.7 6-5.7h32.9c3.2 0 5.8 2.5 6 5.7l5.3 116c.2 3.4-2.6 6.3-6 6.3h-43.4c-3.5 0-6.3-2.9-6.1-6.3zM267.5 282.8l3.9-86c.1-2.7 2.3-4.8 5-4.8h23.2c2.7 0 4.9 2.1 5 4.8l3.9 86c.1 2.8-2.1 5.2-5 5.2h-31c-2.8 0-5.1-2.4-5-5.2zM272.9 163.8l2.2-48c.1-2.1 1.9-3.8 4-3.8h17.8c2.1 0 3.9 1.7 4 3.8l2.2 48c.1 2.3-1.7 4.2-4 4.2h-22.2c-2.3 0-4.1-1.9-4-4.2zM276.2 92.9l1.2-26c.1-1.6 1.4-2.9 3-2.9h15.3c1.6 0 2.9 1.3 3 2.9l1.2 26c.1 1.7-1.3 3.1-3 3.1h-17.7c-1.8 0-3.1-1.4-3-3.1zM.4 439.8l148-373.9c.5-1.1 1.6-1.9 2.8-1.9h17.9c2 0 3.5 2 2.9 3.9L54.5 443.8c-.8 2.5-3.1 4.2-5.7 4.2H6c-4.2 0-7.1-4.3-5.6-8.2zM521.5 443.8L404 67.9c-.6-1.9.8-3.9 2.9-3.9h17.9c1.2 0 2.3.8 2.8 1.9l148 373.9c1.6 3.9-1.3 8.2-5.6 8.2h-42.8c-2.6 0-4.9-1.7-5.7-4.2z"/></svg>
